<svg xmlns="http://www.w3.org/2000/svg" fill="none" viewBox="0 0 100 100"><path fill="#EE4323" d="M34.79 99.993h-.003c-11.884-2.736-22.408-10.47-25.69-22.62-3.287-12.159 1.185-24.416 8.488-34.162 3.651-4.87 7.922-9.24 12.365-13.388 4.135-3.863 8.691-7.412 12.438-11.663C46.25 13.774 51.08 5.93 47.415 0 54.07 4.972 59.437 13.281 58.54 21.84c-.717 6.83-5.84 13.783-.822 20.232 3.122 4.009 9.442 3.168 11.776-.704l-.172.185a6.9 6.9 0 0 0 .867-2.065c.012-.593-.093-1.256-.414-2.035l.61.333C82.088 43.854 91.534 54.45 91.269 68.22 90.948 84.956 75.355 96.67 60.264 100c7.142-2.813 13.508-8.386 14.376-16.399.8-7.392-3.163-13.766-8.53-18.48-5.1-4.485-11.188-7.376-16.737-11.203-3.198-2.205-8.053-6.632-6.345-11.122-2.222 1.913-3.977 4.59-4.669 7.447-1.382 5.7 2.131 10.14 5.764 14.07 3.674 3.969 3.39 10.781-2.808 12.138a6.99 6.99 0 0 1-7.064-2.674c-1.725-2.353-1.345-4.76-.65-7.39-5.791 4.1-10.448 10.339-10.432 17.687.014 6.74 5.623 13.326 11.618 15.918z"/></svg>