<svg xmlns="http://www.w3.org/2000/svg" xmlns:xlink="http://www.w3.org/1999/xlink" width="500" zoomAndPan="magnify" viewBox="0 0 375 374.999991" height="500" preserveAspectRatio="xMidYMid meet" version="1.0"><defs><g/><clipPath id="ef737d9270"><path d="M 0 1.410156 L 373.589844 1.410156 L 373.589844 375 L 0 375 Z M 0 1.410156 " clip-rule="nonzero"/></clipPath><clipPath id="b1c3a0550b"><path d="M 186.796875 1.410156 C 83.632812 1.410156 0 85.042969 0 188.203125 C 0 291.367188 83.632812 375 186.796875 375 C 289.957031 375 373.589844 291.367188 373.589844 188.203125 C 373.589844 85.042969 289.957031 1.410156 186.796875 1.410156 Z M 186.796875 1.410156 " clip-rule="nonzero"/></clipPath><clipPath id="64e3423a0f"><path d="M 36 18 L 104 18 L 104 136 L 36 136 Z M 36 18 " clip-rule="nonzero"/></clipPath><clipPath id="1bf592f007"><path d="M 36.472656 27.890625 L 78.972656 18.140625 L 103.609375 125.5625 L 61.113281 135.308594 Z M 36.472656 27.890625 " clip-rule="nonzero"/></clipPath><clipPath id="77a67055e6"><path d="M 274 239 L 352 239 L 352 359 L 274 359 Z M 274 239 " clip-rule="nonzero"/></clipPath><clipPath id="395ab2af7e"><path d="M 274.539062 254.234375 L 315.296875 239.980469 L 351.671875 344.015625 L 310.914062 358.265625 Z M 274.539062 254.234375 " clip-rule="nonzero"/></clipPath></defs><g clip-path="url(#ef737d9270)"><g clip-path="url(#b1c3a0550b)"><path fill="#d69268" d="M 0 1.410156 L 373.589844 1.410156 L 373.589844 375 L 0 375 Z M 0 1.410156 " fill-opacity="1" fill-rule="nonzero"/></g></g><g fill="#ffffff" fill-opacity="1"><g transform="translate(56.873186, 255.135742)"><g><path d="M 115 0 L 97.6875 -81.53125 L 96.90625 -81.53125 L 79.59375 0 L 32.296875 0 L 0.96875 -133.875 L 45.734375 -133.875 L 61.109375 -57.984375 L 61.875 -57.984375 L 77.0625 -133.875 L 119.484375 -133.875 L 135.625 -57.984375 L 136.40625 -57.984375 L 150.8125 -133.875 L 193.625 -133.875 L 162.296875 0 Z M 115 0 "/></g></g></g><g clip-path="url(#64e3423a0f)"><g clip-path="url(#1bf592f007)"><path fill="#ffffff" d="M 36.472656 27.890625 L 78.972656 18.140625 L 103.609375 125.546875 L 61.109375 135.292969 Z M 36.472656 27.890625 " fill-opacity="1" fill-rule="nonzero"/></g></g><path stroke-linecap="butt" transform="matrix(0.75, 0.000000000000000508, -0.000000000000000508, 0.75, 207.718774, 108.829666)" fill="none" stroke-linejoin="miter" d="M -0.0000320797 1.997946 L 83.869765 1.997946 " stroke="#ffffff" stroke-width="4" stroke-opacity="1" stroke-miterlimit="4"/><g fill="#ffffff" fill-opacity="1"><g transform="translate(170.972377, 255.099704)"><g><path d="M 104.109375 0 L 98.46875 -18.875 L 51.5625 -18.875 L 45.921875 0 L 1.953125 0 L 50.78125 -133.875 L 100.796875 -133.875 L 149.640625 0 Z M 60.515625 -48.84375 L 89.515625 -48.84375 L 75.5 -96.515625 L 74.71875 -96.515625 Z M 60.515625 -48.84375 "/></g></g></g><g fill="#ffffff" fill-opacity="1"><g transform="translate(91.695591, 284.622142)"><g><path d="M 14.265625 0 L 11.546875 -9.53125 L 8.828125 0 L 4.53125 0 L -0.3125 -16.984375 L 3.984375 -16.984375 L 6.890625 -5.328125 L 7 -5.328125 L 10.078125 -16.984375 L 13 -16.984375 L 16.09375 -5.328125 L 16.1875 -5.328125 L 19.09375 -16.984375 L 23.375 -16.984375 L 18.546875 0 Z M 14.265625 0 "/></g></g></g><g fill="#ffffff" fill-opacity="1"><g transform="translate(116.083077, 284.622142)"><g><path d="M 9.859375 -16.984375 L 16.703125 0 L 12.546875 0 L 11.296875 -3.390625 L 4.828125 -3.390625 L 3.578125 0 L -0.578125 0 L 6.28125 -16.984375 Z M 9.984375 -6.796875 L 8.09375 -11.734375 L 8.046875 -11.734375 L 6.15625 -6.796875 Z M 9.984375 -6.796875 "/></g></g></g><g fill="#ffffff" fill-opacity="1"><g transform="translate(133.54117, 284.622142)"><g><path d="M 5.109375 -16.984375 L 5.109375 -3.390625 L 10.953125 -3.390625 L 10.953125 0 L 1.234375 0 L 1.234375 -16.984375 Z M 5.109375 -16.984375 "/></g></g></g><g fill="#ffffff" fill-opacity="1"><g transform="translate(146.496189, 284.622142)"><g><path d="M 5.109375 -16.984375 L 5.109375 0 L 1.234375 0 L 1.234375 -16.984375 Z M 5.109375 -16.984375 "/></g></g></g><g fill="#ffffff" fill-opacity="1"><g transform="translate(154.166771, 284.622142)"><g><path d="M -0.625 -16.984375 L 4.03125 -16.984375 L 7.578125 -11.546875 L 11.109375 -16.984375 L 15.765625 -16.984375 L 9.5 -7.609375 L 9.5 0 L 5.640625 0 L 5.640625 -7.609375 Z M -0.625 -16.984375 "/></g></g></g><g fill="#ffffff" fill-opacity="1"><g transform="translate(170.637888, 284.622142)"><g><path d="M 14.28125 -16.984375 L 14.28125 -6.03125 C 14.28125 -3.945312 13.71875 -2.367188 12.59375 -1.296875 C 11.46875 -0.222656 9.820312 0.3125 7.65625 0.3125 C 5.488281 0.3125 3.84375 -0.222656 2.71875 -1.296875 C 1.59375 -2.367188 1.03125 -3.945312 1.03125 -6.03125 L 1.03125 -16.984375 L 4.890625 -16.984375 L 4.890625 -7.15625 C 4.890625 -5.789062 5.101562 -4.835938 5.53125 -4.296875 C 5.96875 -3.765625 6.671875 -3.5 7.640625 -3.5 C 8.617188 -3.5 9.320312 -3.765625 9.75 -4.296875 C 10.1875 -4.835938 10.40625 -5.789062 10.40625 -7.15625 L 10.40625 -16.984375 Z M 14.28125 -16.984375 "/></g></g></g><g fill="#ffffff" fill-opacity="1"><g transform="translate(187.273507, 284.622142)"><g><path d="M 5.109375 -16.984375 L 5.109375 -3.390625 L 10.953125 -3.390625 L 10.953125 0 L 1.234375 0 L 1.234375 -16.984375 Z M 5.109375 -16.984375 "/></g></g></g><g fill="#ffffff" fill-opacity="1"><g transform="translate(200.228522, 284.622142)"><g/></g></g><g fill="#ffffff" fill-opacity="1"><g transform="translate(207.179441, 284.622142)"><g><path d="M 9.859375 -16.984375 L 16.703125 0 L 12.546875 0 L 11.296875 -3.390625 L 4.828125 -3.390625 L 3.578125 0 L -0.578125 0 L 6.28125 -16.984375 Z M 9.984375 -6.796875 L 8.09375 -11.734375 L 8.046875 -11.734375 L 6.15625 -6.796875 Z M 9.984375 -6.796875 "/></g></g></g><g fill="#ffffff" fill-opacity="1"><g transform="translate(224.637533, 284.622142)"><g><path d="M 1.234375 -16.984375 L 7.3125 -16.984375 C 8.9375 -16.984375 10.265625 -16.546875 11.296875 -15.671875 C 12.328125 -14.796875 12.84375 -13.550781 12.84375 -11.9375 C 12.84375 -10.6875 12.53125 -9.640625 11.90625 -8.796875 C 11.28125 -7.953125 10.429688 -7.359375 9.359375 -7.015625 L 15.203125 0 L 10.296875 0 L 5.109375 -6.703125 L 5.109375 0 L 1.234375 0 Z M 5.109375 -9.453125 L 5.5625 -9.453125 C 5.914062 -9.453125 6.210938 -9.457031 6.453125 -9.46875 C 6.703125 -9.476562 6.984375 -9.523438 7.296875 -9.609375 C 7.617188 -9.691406 7.875 -9.804688 8.0625 -9.953125 C 8.257812 -10.109375 8.425781 -10.328125 8.5625 -10.609375 C 8.695312 -10.898438 8.765625 -11.25 8.765625 -11.65625 C 8.765625 -12.070312 8.695312 -12.425781 8.5625 -12.71875 C 8.425781 -13.007812 8.257812 -13.226562 8.0625 -13.375 C 7.875 -13.53125 7.617188 -13.644531 7.296875 -13.71875 C 6.984375 -13.800781 6.703125 -13.847656 6.453125 -13.859375 C 6.210938 -13.878906 5.914062 -13.890625 5.5625 -13.890625 L 5.109375 -13.890625 Z M 5.109375 -9.453125 "/></g></g></g><g fill="#ffffff" fill-opacity="1"><g transform="translate(240.69742, 284.622142)"><g><path d="M 1.234375 -16.984375 L 6.15625 -16.984375 C 8.507812 -16.984375 10.523438 -16.175781 12.203125 -14.5625 C 13.878906 -12.945312 14.71875 -10.925781 14.71875 -8.5 C 14.71875 -6.050781 13.882812 -4.019531 12.21875 -2.40625 C 10.550781 -0.800781 8.53125 0 6.15625 0 L 1.234375 0 Z M 5.109375 -3.453125 L 5.703125 -3.453125 C 7.109375 -3.453125 8.257812 -3.925781 9.15625 -4.875 C 10.0625 -5.832031 10.519531 -7.035156 10.53125 -8.484375 C 10.53125 -9.921875 10.082031 -11.117188 9.1875 -12.078125 C 8.289062 -13.035156 7.128906 -13.515625 5.703125 -13.515625 L 5.109375 -13.515625 Z M 5.109375 -3.453125 "/></g></g></g><g fill="#ffffff" fill-opacity="1"><g transform="translate(257.209672, 284.622142)"><g><path d="M -0.625 -16.984375 L 4.03125 -16.984375 L 7.578125 -11.546875 L 11.109375 -16.984375 L 15.765625 -16.984375 L 9.5 -7.609375 L 9.5 0 L 5.640625 0 L 5.640625 -7.609375 Z M -0.625 -16.984375 "/></g></g></g><g clip-path="url(#77a67055e6)"><g clip-path="url(#395ab2af7e)"><path fill="#ffffff" d="M 274.539062 254.234375 L 315.296875 239.980469 L 351.648438 343.949219 L 310.890625 358.199219 Z M 274.539062 254.234375 " fill-opacity="1" fill-rule="nonzero"/></g></g></svg>